<svg xmlns="http://www.w3.org/2000/svg" width="202" height="27" fill="none"><path fill="#fff" d="M42.7 21V1.2h5.436c1.408 0 2.716.252 3.924.756 1.208.504 2.264 1.208 3.168 2.112.912.904 1.62 1.956 2.124 3.156.512 1.2.768 2.496.768 3.888 0 1.4-.252 2.7-.756 3.9-.504 1.192-1.212 2.24-2.124 3.144-.904.896-1.964 1.596-3.18 2.1-1.208.496-2.516.744-3.924.744H42.7Zm3.888-3.48h1.116c.896 0 1.724-.16 2.484-.48.76-.32 1.42-.768 1.98-1.344.56-.576.996-1.252 1.308-2.028.312-.784.468-1.64.468-2.568 0-.92-.156-1.768-.468-2.544-.312-.784-.748-1.464-1.308-2.04-.56-.584-1.22-1.036-1.98-1.356-.76-.32-1.588-.48-2.484-.48h-1.116v12.84ZM67.0359 21V1.2h11.016v3.408h-7.128v4.764h6.84v3.408h-6.84v4.812h7.128V21h-11.016Zm25.9335.384c-.92 0-1.768-.104-2.544-.312-.776-.2-1.472-.452-2.088-.756-.608-.312-1.132-.632-1.572-.96-.44-.328-.788-.616-1.044-.864l1.992-3.216c.264.232.58.492.948.78.368.288.78.564 1.236.828.456.256.948.472 1.476.648.536.168 1.104.252 1.704.252.56 0 1.052-.088 1.476-.264.432-.176.772-.436 1.02-.78.248-.352.372-.788.372-1.308 0-.472-.1-.872-.3-1.2-.2-.336-.496-.636-.888-.9-.384-.272-.86-.536-1.428-.792-.56-.264-1.2-.552-1.92-.864-.536-.24-1.048-.512-1.536-.816-.48-.312-.908-.672-1.284-1.08a4.9485 4.9485 0 0 1-.9-1.38c-.216-.52-.324-1.1-.324-1.74 0-.76.152-1.488.456-2.184.304-.696.736-1.316 1.296-1.86.568-.544 1.24-.976 2.016-1.296.784-.32 1.656-.48 2.616-.48.72 0 1.44.096 2.16.288.72.192 1.392.444 2.016.756.624.312 1.152.652 1.584 1.02l-1.62 3.048c-.344-.296-.736-.56-1.176-.792-.432-.24-.896-.432-1.392-.576a5.2314 5.2314 0 0 0-1.488-.216c-.568 0-1.052.1-1.452.3-.392.2-.696.468-.912.804-.208.328-.312.696-.312 1.104 0 .336.068.624.204.864.144.232.344.436.6.612.256.168.564.332.924.492.36.152.756.316 1.188.492.928.392 1.768.78 2.52 1.164.752.384 1.396.812 1.932 1.284.536.464.944 1.008 1.224 1.632.2876.624.4316 1.368.4316 2.232 0 1.264-.3036 2.348-.9116 3.252-.6.904-1.44 1.596-2.52 2.076-1.08.472-2.34.708-3.78.708ZM109.169 21V1.2h3.888V21h-3.888Zm22.584.384c-1.36 0-2.628-.26-3.804-.78-1.176-.52-2.204-1.244-3.084-2.172-.88-.936-1.568-2.028-2.064-3.276-.496-1.248-.744-2.6-.744-4.056 0-1.392.232-2.704.696-3.936.464-1.24 1.132-2.332 2.004-3.276.872-.952 1.924-1.696 3.156-2.232 1.232-.544 2.612-.816 4.14-.816.864 0 1.732.096 2.604.288.88.192 1.724.476 2.532.852.808.368 1.536.82 2.184 1.356l-1.824 3.012c-.696-.648-1.54-1.148-2.532-1.5-.984-.36-1.956-.54-2.916-.54-.944 0-1.78.168-2.508.504-.72.328-1.328.792-1.824 1.392-.496.6-.872 1.304-1.128 2.112-.256.8-.384 1.672-.384 2.616 0 1.032.144 1.968.432 2.808.288.84.688 1.564 1.2 2.172.52.608 1.124 1.076 1.812 1.404.696.328 1.444.492 2.244.492.64 0 1.256-.104 1.848-.312.6-.216 1.132-.516 1.596-.9.464-.384.832-.836 1.104-1.356.272-.52.408-1.088.408-1.704v-.3h-5.196v-3.012h9.156v3c0 1.208-.252 2.312-.756 3.312-.496.992-1.176 1.852-2.04 2.58-.864.72-1.84 1.28-2.928 1.68-1.088.392-2.216.588-3.384.588ZM149.778 21V1.2h3.888l8.532 13.32V1.2h3.888V21h-3.888l-8.532-13.32V21h-3.888Zm35.247.384c-1.384 0-2.68-.264-3.888-.792-1.208-.528-2.268-1.26-3.18-2.196-.912-.944-1.628-2.036-2.148-3.276-.512-1.248-.768-2.584-.768-4.008s.256-2.756.768-3.996c.52-1.248 1.236-2.34 2.148-3.276.912-.944 1.972-1.68 3.18-2.208 1.208-.528 2.504-.792 3.888-.792s2.68.264 3.888.792c1.208.528 2.268 1.264 3.18 2.208.912.936 1.624 2.028 2.136 3.276.52 1.24.78 2.572.78 3.996s-.26 2.76-.78 4.008c-.512 1.24-1.224 2.332-2.136 3.276-.912.936-1.972 1.668-3.18 2.196-1.208.528-2.504.792-3.888.792Zm-.012-3.744c.848 0 1.624-.16 2.328-.48.704-.32 1.316-.772 1.836-1.356.52-.584.924-1.272 1.212-2.064.288-.8.432-1.676.432-2.628 0-.952-.144-1.824-.432-2.616-.288-.8-.692-1.492-1.212-2.076-.52-.584-1.132-1.036-1.836-1.356-.704-.32-1.48-.48-2.328-.48-.832 0-1.604.16-2.316.48-.704.32-1.316.772-1.836 1.356-.52.584-.924 1.276-1.212 2.076-.28.792-.42 1.664-.42 2.616 0 .952.14 1.828.42 2.628.288.792.692 1.48 1.212 2.064.52.584 1.132 1.036 1.836 1.356.712.32 1.484.48 2.316.48Z"/><circle cx="12" cy="12" r="12" fill="url(#a)" transform="matrix(0 -1 -1 0 24 24)"/><defs><radialGradient id="a" cx="0" cy="0" r="1" gradientTransform="matrix(12 0 0 12 12 12)" gradientUnits="userSpaceOnUse"><stop stop-color="#E7816B" stop-opacity=".01"/><stop offset=".9993" stop-color="#E7816B"/></radialGradient></defs></svg>