<svg xmlns="http://www.w3.org/2000/svg" width="196" height="24" fill="none"><path fill="#333136" fill-rule="evenodd" d="M92.972 21.384c1.4399 0 2.6999-.238 3.7799-.714 1.0801-.476 1.9221-1.166 2.5261-2.07.604-.904.906-1.988.906-3.252 0-.864-.142-1.608-.4261-2.232-.284-.624-.694-1.17-1.2299-1.638-.536-.468-1.1801-.894-1.9321-1.278s-1.592-.772-2.5199-1.164c-.432-.176-.8281-.342-1.188-.498-.36-.156-.6681-.32-.924-.492-.256-.172-.4541-.376-.5941-.612-.14-.236-.2099-.522-.2099-.858 0-.408.1059-.778.318-1.11.2119-.332.5159-.598.9119-.798.396-.2.878-.3 1.446-.3.5041 0 1.002.072 1.494.216.492.144.956.334 1.3921.57.436.236.826.502 1.1699.798l1.62-3.048c-.432-.368-.96-.708-1.584-1.02-.6239-.312-1.2959-.564-2.016-.756-.72-.192-1.4399-.288-2.16-.288-.9599 0-1.8299.16-2.61.48-.78.32-1.452.752-2.016 1.296-.5639.544-.998 1.164-1.302 1.86a5.4009 5.4009 0 0 0-.4559 2.184c0 .64.11 1.218.3299 1.734.22.516.5181.978.894 1.386.376.408.806.766 1.2901 1.074.4839.308.9939.582 1.5299.822.7201.312 1.362.598 1.926.858.5641.26 1.04.524 1.428.792.388.268.682.568.882.9.2.332.3.734.3 1.206 0 .52-.124.954-.3719 1.302-.2481.348-.5861.61-1.014.786-.4281.176-.9221.264-1.4821.264-.6 0-1.166-.086-1.6979-.258-.5321-.172-1.0261-.388-1.4821-.648-.4559-.26-.868-.534-1.236-.822-.368-.288-.684-.548-.9479-.78l-1.9921 3.216c.256.248.604.536 1.044.864.4401.328.966.646 1.5781.954.612.308 1.306.564 2.0819.768.776.204 1.624.306 2.5441.306ZM48.136 21c1.408 0 2.718-.25 3.93-.75 1.212-.5 2.272-1.2 3.18-2.1.908-.9 1.614-1.948 2.118-3.144.504-1.196.756-2.494.756-3.894 0-1.392-.254-2.688-.762-3.888-.508-1.2-1.216-2.252-2.124-3.156-.908-.904-1.966-1.608-3.174-2.112S49.544 1.2 48.136 1.2H42.7V21h5.436Zm-.432-3.48h-1.116V4.68h1.116c.896 0 1.724.16 2.484.48.76.32 1.42.77 1.98 1.35.56.58.996 1.26 1.308 2.04.312.78.468 1.63.468 2.55 0 .928-.156 1.782-.468 2.562-.312.78-.748 1.458-1.308 2.034-.56.576-1.22 1.024-1.98 1.344-.76.32-1.588.48-2.484.48Zm30.356.072V21H67.044V1.2H78.06v3.408h-7.128v4.764h6.8399v3.408H70.932v4.812h7.128ZM109.168 1.2h3.888V21h-3.888V1.2Zm22.58 20.184c1.168 0 2.296-.198 3.384-.594 1.088-.396 2.064-.956 2.928-1.68.864-.724 1.546-1.584 2.046-2.58.5-.996.75-2.098.75-3.306v-3H131.7v3.012h5.196v.3c0 .616-.136 1.184-.408 1.704-.272.52-.64.972-1.104 1.356-.464.384-.994.682-1.59.894-.596.212-1.214.318-1.854.318-.8 0-1.546-.164-2.238-.492-.692-.328-1.296-.796-1.812-1.404-.516-.608-.918-1.332-1.206-2.172-.288-.84-.432-1.776-.432-2.808 0-.944.128-1.818.384-2.622.256-.804.632-1.506 1.128-2.106.496-.6 1.106-1.066 1.83-1.398.724-.332 1.558-.498 2.502-.498.96 0 1.934.178 2.922.534.988.356 1.83.858 2.526 1.506l1.824-3.012c-.648-.536-1.376-.99-2.184-1.362-.808-.372-1.65-.654-2.526-.846-.876-.192-1.746-.288-2.61-.288-1.528 0-2.908.27-4.14.81-1.232.54-2.284 1.284-3.156 2.232-.872.948-1.54 2.04-2.004 3.276-.464 1.236-.696 2.55-.696 3.942 0 1.456.248 2.808.744 4.056.496 1.248 1.184 2.338 2.064 3.27.88.932 1.908 1.658 3.084 2.178 1.176.52 2.444.78 3.804.78Zm21.92-13.704V21h-3.888V1.2h3.888l8.532 13.32V1.2h3.888V21H162.2l-8.532-13.32Zm31.364 13.704c1.384 0 2.68-.264 3.888-.792 1.208-.528 2.268-1.262 3.18-2.202.912-.94 1.626-2.032 2.142-3.276.516-1.244.774-2.578.774-4.002s-.258-2.758-.774-4.002c-.516-1.244-1.23-2.336-2.142-3.276-.912-.94-1.972-1.674-3.18-2.202-1.208-.528-2.504-.792-3.888-.792s-2.68.264-3.888.792c-1.208.528-2.268 1.262-3.18 2.202-.912.94-1.626 2.032-2.142 3.276-.516 1.244-.774 2.578-.774 4.002s.258 2.758.774 4.002c.516 1.244 1.23 2.336 2.142 3.276.912.94 1.972 1.674 3.18 2.202 1.208.528 2.504.792 3.888.792Zm-2.322-4.224c.708.32 1.478.48 2.31.48.848 0 1.624-.16 2.328-.48.704-.32 1.316-.772 1.836-1.356.52-.584.924-1.274 1.212-2.07.288-.796.432-1.67.432-2.622s-.144-1.826-.432-2.622c-.288-.796-.692-1.486-1.212-2.07-.52-.584-1.132-1.036-1.836-1.356-.704-.32-1.48-.48-2.328-.48-.832 0-1.602.16-2.31.48-.708.32-1.322.772-1.842 1.356-.52.584-.922 1.274-1.206 2.07-.284.796-.426 1.67-.426 2.622s.142 1.826.426 2.622c.284.796.686 1.486 1.206 2.07.52.584 1.134 1.036 1.842 1.356Z" clip-rule="evenodd"/><circle cx="12" cy="12" r="12" fill="url(#a)" transform="matrix(0 -1 -1 0 24 24)"/><defs><radialGradient id="a" cx="0" cy="0" r="1" gradientTransform="matrix(12 0 0 12 12 12)" gradientUnits="userSpaceOnUse"><stop stop-color="#E7816B" stop-opacity=".01"/><stop offset=".9993" stop-color="#E7816B"/></radialGradient></defs></svg>